<?xml version="1.0" encoding="UTF-8" standalone="no"?>
<!-- This is a Stata 17.0 generated SVG file (http://www.stata.com) -->

<svg version="1.1" width="3.58in" height="2.60in" viewBox="0 0 2574 1872" xmlns="http://www.w3.org/2000/svg" xmlns:xlink="http://www.w3.org/1999/xlink">
	<desc>Stata Graph - Figure2b_Textual</desc>
	<rect x="0" y="0" width="2574" height="1872" style="fill:#F0F0F0;stroke:none"/>
	<rect x="0.00" y="0.00" width="2573.92" height="1872.00" style="fill:#FFFFFF"/>
	<rect x="1.87" y="1.87" width="2570.18" height="1868.26" style="fill:none;stroke:#FFFFFF;stroke-width:3.74"/>
	<rect x="65.56" y="65.56" width="2442.81" height="1740.88" style="fill:#FFFFFF"/>
	<rect x="67.43" y="67.43" width="2439.06" height="1737.14" style="fill:none;stroke:#FFFFFF;stroke-width:3.74"/>
	<rect x="240.99" y="65.56" width="2267.37" height="1280.04" style="fill:#FFFFFF"/>
	<rect x="242.86" y="67.43" width="2263.63" height="1276.30" style="fill:none;stroke:#FFFFFF;stroke-width:3.74"/>
	<line x1="240.99" y1="1239.10" x2="2508.36" y2="1239.10" style="stroke:#E8E8E8;stroke-width:5.62"/>
	<line x1="240.99" y1="956.03" x2="2508.36" y2="956.03" style="stroke:#E8E8E8;stroke-width:5.62"/>
	<line x1="240.99" y1="672.88" x2="2508.36" y2="672.88" style="stroke:#E8E8E8;stroke-width:5.62"/>
	<line x1="240.99" y1="389.81" x2="2508.36" y2="389.81" style="stroke:#E8E8E8;stroke-width:5.62"/>
	<line x1="240.99" y1="106.74" x2="2508.36" y2="106.74" style="stroke:#E8E8E8;stroke-width:5.62"/>
	<line x1="240.99" y1="1239.10" x2="278.39" y2="1239.10" style="stroke:#000000;stroke-width:5.62"/>
	<line x1="297.14" y1="1239.10" x2="334.62" y2="1239.10" style="stroke:#000000;stroke-width:5.62"/>
	<line x1="353.28" y1="1239.10" x2="390.77" y2="1239.10" style="stroke:#000000;stroke-width:5.62"/>
	<line x1="409.43" y1="1239.10" x2="446.91" y2="1239.10" style="stroke:#000000;stroke-width:5.62"/>
	<line x1="465.65" y1="1239.10" x2="503.06" y2="1239.10" style="stroke:#000000;stroke-width:5.62"/>
	<line x1="521.80" y1="1239.10" x2="559.20" y2="1239.10" style="stroke:#000000;stroke-width:5.62"/>
	<line x1="577.94" y1="1239.10" x2="615.35" y2="1239.10" style="stroke:#000000;stroke-width:5.62"/>
	<line x1="634.09" y1="1239.10" x2="671.49" y2="1239.10" style="stroke:#000000;stroke-width:5.62"/>
	<line x1="690.23" y1="1239.10" x2="727.64" y2="1239.10" style="stroke:#000000;stroke-width:5.62"/>
	<line x1="746.38" y1="1239.10" x2="783.78" y2="1239.10" style="stroke:#000000;stroke-width:5.62"/>
	<line x1="802.52" y1="1239.10" x2="839.93" y2="1239.10" style="stroke:#000000;stroke-width:5.62"/>
	<line x1="858.67" y1="1239.10" x2="896.07" y2="1239.10" style="stroke:#000000;stroke-width:5.62"/>
	<line x1="914.82" y1="1239.10" x2="952.30" y2="1239.10" style="stroke:#000000;stroke-width:5.62"/>
	<line x1="970.96" y1="1239.10" x2="1008.44" y2="1239.10" style="stroke:#000000;stroke-width:5.62"/>
	<line x1="1027.11" y1="1239.10" x2="1064.59" y2="1239.10" style="stroke:#000000;stroke-width:5.62"/>
	<line x1="1083.33" y1="1239.10" x2="1120.74" y2="1239.10" style="stroke:#000000;stroke-width:5.62"/>
	<line x1="1139.48" y1="1239.10" x2="1176.88" y2="1239.10" style="stroke:#000000;stroke-width:5.62"/>
	<line x1="1195.62" y1="1239.10" x2="1233.03" y2="1239.10" style="stroke:#000000;stroke-width:5.62"/>
	<line x1="1251.77" y1="1239.10" x2="1289.17" y2="1239.10" style="stroke:#000000;stroke-width:5.62"/>
	<line x1="1307.91" y1="1239.10" x2="1345.32" y2="1239.10" style="stroke:#000000;stroke-width:5.62"/>
	<line x1="1364.06" y1="1239.10" x2="1401.46" y2="1239.10" style="stroke:#000000;stroke-width:5.62"/>
	<line x1="1420.20" y1="1239.10" x2="1457.61" y2="1239.10" style="stroke:#000000;stroke-width:5.62"/>
	<line x1="1476.35" y1="1239.10" x2="1513.75" y2="1239.10" style="stroke:#000000;stroke-width:5.62"/>
	<line x1="1532.50" y1="1239.10" x2="1569.98" y2="1239.10" style="stroke:#000000;stroke-width:5.62"/>
	<line x1="1588.64" y1="1239.10" x2="1626.12" y2="1239.10" style="stroke:#000000;stroke-width:5.62"/>
	<line x1="1644.79" y1="1239.10" x2="1682.27" y2="1239.10" style="stroke:#000000;stroke-width:5.62"/>
	<line x1="1701.01" y1="1239.10" x2="1738.42" y2="1239.10" style="stroke:#000000;stroke-width:5.62"/>
	<line x1="1757.16" y1="1239.10" x2="1794.56" y2="1239.10" style="stroke:#000000;stroke-width:5.62"/>
	<line x1="1813.30" y1="1239.10" x2="1850.71" y2="1239.10" style="stroke:#000000;stroke-width:5.62"/>
	<line x1="1869.45" y1="1239.10" x2="1906.85" y2="1239.10" style="stroke:#000000;stroke-width:5.62"/>
	<line x1="1925.59" y1="1239.10" x2="1963.00" y2="1239.10" style="stroke:#000000;stroke-width:5.62"/>
	<line x1="1981.74" y1="1239.10" x2="2019.14" y2="1239.10" style="stroke:#000000;stroke-width:5.62"/>
	<line x1="2037.88" y1="1239.10" x2="2075.29" y2="1239.10" style="stroke:#000000;stroke-width:5.62"/>
	<line x1="2094.03" y1="1239.10" x2="2131.43" y2="1239.10" style="stroke:#000000;stroke-width:5.62"/>
	<line x1="2150.17" y1="1239.10" x2="2187.66" y2="1239.10" style="stroke:#000000;stroke-width:5.62"/>
	<line x1="2206.32" y1="1239.10" x2="2243.80" y2="1239.10" style="stroke:#000000;stroke-width:5.62"/>
	<line x1="2262.55" y1="1239.10" x2="2299.95" y2="1239.10" style="stroke:#000000;stroke-width:5.62"/>
	<line x1="2318.69" y1="1239.10" x2="2356.09" y2="1239.10" style="stroke:#000000;stroke-width:5.62"/>
	<line x1="2374.84" y1="1239.10" x2="2412.24" y2="1239.10" style="stroke:#000000;stroke-width:5.62"/>
	<line x1="2430.98" y1="1239.10" x2="2468.39" y2="1239.10" style="stroke:#000000;stroke-width:5.62"/>
	<line x1="2487.13" y1="1239.10" x2="2508.36" y2="1239.10" style="stroke:#000000;stroke-width:5.62"/>
	<line x1="282.17" y1="737.23" x2="282.17" y2="335.92" style="stroke:#000000;stroke-width:5.62"/>
	<line x1="267.86" y1="335.92" x2="296.49" y2="335.92" stroke-linecap="round" style="stroke:#000000;stroke-width:5.62"/>
	<line x1="267.86" y1="737.23" x2="296.49" y2="737.23" stroke-linecap="round" style="stroke:#000000;stroke-width:5.62"/>
	<line x1="555.34" y1="605.55" x2="555.34" y2="193.70" style="stroke:#000000;stroke-width:5.62"/>
	<line x1="541.02" y1="193.70" x2="569.66" y2="193.70" stroke-linecap="round" style="stroke:#000000;stroke-width:5.62"/>
	<line x1="541.02" y1="605.55" x2="569.66" y2="605.55" stroke-linecap="round" style="stroke:#000000;stroke-width:5.62"/>
	<line x1="828.43" y1="645.61" x2="828.43" y2="237.14" style="stroke:#000000;stroke-width:5.62"/>
	<line x1="814.11" y1="237.14" x2="842.74" y2="237.14" stroke-linecap="round" style="stroke:#000000;stroke-width:5.62"/>
	<line x1="814.11" y1="645.61" x2="842.74" y2="645.61" stroke-linecap="round" style="stroke:#000000;stroke-width:5.62"/>
	<line x1="1101.59" y1="1262.43" x2="1101.59" y2="969.14" style="stroke:#000000;stroke-width:5.62"/>
	<line x1="1087.27" y1="969.14" x2="1115.91" y2="969.14" stroke-linecap="round" style="stroke:#000000;stroke-width:5.62"/>
	<line x1="1087.27" y1="1262.43" x2="1115.91" y2="1262.43" stroke-linecap="round" style="stroke:#000000;stroke-width:5.62"/>
	<line x1="1374.68" y1="1075.32" x2="1374.68" y2="761.20" style="stroke:#000000;stroke-width:5.62"/>
	<line x1="1360.36" y1="761.20" x2="1388.99" y2="761.20" stroke-linecap="round" style="stroke:#000000;stroke-width:5.62"/>
	<line x1="1360.36" y1="1075.32" x2="1388.99" y2="1075.32" stroke-linecap="round" style="stroke:#000000;stroke-width:5.62"/>
	<line x1="1647.84" y1="1161.15" x2="1647.84" y2="853.87" style="stroke:#000000;stroke-width:5.62"/>
	<line x1="1633.52" y1="853.87" x2="1662.16" y2="853.87" stroke-linecap="round" style="stroke:#000000;stroke-width:5.62"/>
	<line x1="1633.52" y1="1161.15" x2="1662.16" y2="1161.15" stroke-linecap="round" style="stroke:#000000;stroke-width:5.62"/>
	<line x1="1920.93" y1="1304.42" x2="1920.93" y2="1013.87" style="stroke:#000000;stroke-width:5.62"/>
	<line x1="1906.61" y1="1013.87" x2="1935.25" y2="1013.87" stroke-linecap="round" style="stroke:#000000;stroke-width:5.62"/>
	<line x1="1906.61" y1="1304.42" x2="1935.25" y2="1304.42" stroke-linecap="round" style="stroke:#000000;stroke-width:5.62"/>
	<line x1="2194.09" y1="1245.05" x2="2194.09" y2="965.84" style="stroke:#000000;stroke-width:5.62"/>
	<line x1="2179.78" y1="965.84" x2="2208.41" y2="965.84" stroke-linecap="round" style="stroke:#000000;stroke-width:5.62"/>
	<line x1="2179.78" y1="1245.05" x2="2208.41" y2="1245.05" stroke-linecap="round" style="stroke:#000000;stroke-width:5.62"/>
	<line x1="2467.18" y1="800.14" x2="2467.18" y2="461.48" style="stroke:#000000;stroke-width:5.62"/>
	<line x1="2452.86" y1="461.48" x2="2481.50" y2="461.48" stroke-linecap="round" style="stroke:#000000;stroke-width:5.62"/>
	<line x1="2452.86" y1="800.14" x2="2481.50" y2="800.14" stroke-linecap="round" style="stroke:#000000;stroke-width:5.62"/>
	<polygon points="257.93,536.62 282.17,512.37 306.42,536.62 282.17,560.86" style="fill:#000000"/>
	<polygon points="261.90,536.62 282.17,516.35 302.44,536.62 282.17,556.89" style="fill:none;stroke:#000000;stroke-width:5.62"/>
	<polygon points="531.02,399.63 555.26,375.38 579.50,399.63 555.26,423.87" style="fill:#000000"/>
	<polygon points="534.99,399.63 555.26,379.36 575.53,399.63 555.26,419.90" style="fill:none;stroke:#000000;stroke-width:5.62"/>
	<polygon points="804.18,441.37 828.43,417.13 852.67,441.37 828.43,465.62" style="fill:#000000"/>
	<polygon points="808.16,441.37 828.43,421.10 848.70,441.37 828.43,461.64" style="fill:none;stroke:#000000;stroke-width:5.62"/>
	<polygon points="1077.27,1115.78 1101.51,1091.54 1125.75,1115.78 1101.51,1140.02" style="fill:#000000"/>
	<polygon points="1081.24,1115.78 1101.51,1095.51 1121.78,1115.78 1101.51,1136.05" style="fill:none;stroke:#000000;stroke-width:5.62"/>
	<polygon points="1350.44,918.30 1374.68,894.06 1398.92,918.30 1374.68,942.54" style="fill:#000000"/>
	<polygon points="1354.41,918.30 1374.68,898.03 1394.95,918.30 1374.68,938.57" style="fill:none;stroke:#000000;stroke-width:5.62"/>
	<polygon points="1623.52,1007.51 1647.76,983.27 1672.00,1007.51 1647.76,1031.75" style="fill:#000000"/>
	<polygon points="1627.49,1007.51 1647.76,987.24 1668.03,1007.51 1647.76,1027.78" style="fill:none;stroke:#000000;stroke-width:5.62"/>
	<polygon points="1896.69,1159.14 1920.93,1134.90 1945.17,1159.14 1920.93,1183.38" style="fill:#000000"/>
	<polygon points="1900.66,1159.14 1920.93,1138.87 1941.20,1159.14 1920.93,1179.41" style="fill:none;stroke:#000000;stroke-width:5.62"/>
	<polygon points="2169.77,1105.49 2194.01,1081.25 2218.25,1105.49 2194.01,1129.73" style="fill:#000000"/>
	<polygon points="2173.74,1105.49 2194.01,1085.22 2214.28,1105.49 2194.01,1125.76" style="fill:none;stroke:#000000;stroke-width:5.62"/>
	<polygon points="2442.94,630.89 2467.18,606.65 2491.42,630.89 2467.18,655.13" style="fill:#000000"/>
	<polygon points="2446.91,630.89 2467.18,610.62 2487.45,630.89 2467.18,651.16" style="fill:none;stroke:#000000;stroke-width:5.62"/>
	<line x1="240.99" y1="1345.60" x2="240.99" y2="65.56" style="stroke:#000000;stroke-width:3.74"/>
	<line x1="240.99" y1="1239.10" x2="215.01" y2="1239.10" style="stroke:#000000;stroke-width:3.74"/>
	<text x="182.44" y="1239.10" style="font-family:'Helvetica';font-size:64.99px;fill:#000000" transform="rotate(-90 182.44,1239.10)" text-anchor="middle">0</text>
	<line x1="240.99" y1="956.03" x2="215.01" y2="956.03" style="stroke:#000000;stroke-width:3.74"/>
	<text x="182.44" y="956.03" style="font-family:'Helvetica';font-size:64.99px;fill:#000000" transform="rotate(-90 182.44,956.03)" text-anchor="middle">.1</text>
	<line x1="240.99" y1="672.88" x2="215.01" y2="672.88" style="stroke:#000000;stroke-width:3.74"/>
	<text x="182.44" y="672.88" style="font-family:'Helvetica';font-size:64.99px;fill:#000000" transform="rotate(-90 182.44,672.88)" text-anchor="middle">.2</text>
	<line x1="240.99" y1="389.81" x2="215.01" y2="389.81" style="stroke:#000000;stroke-width:3.74"/>
	<text x="182.44" y="389.81" style="font-family:'Helvetica';font-size:64.99px;fill:#000000" transform="rotate(-90 182.44,389.81)" text-anchor="middle">.3</text>
	<line x1="240.99" y1="106.74" x2="215.01" y2="106.74" style="stroke:#000000;stroke-width:3.74"/>
	<text x="182.44" y="106.74" style="font-family:'Helvetica';font-size:64.99px;fill:#000000" transform="rotate(-90 182.44,106.74)" text-anchor="middle">.4</text>
	<text x="114.84" y="705.54" style="font-family:'Helvetica';font-size:51.96px;fill:#000000" transform="rotate(-90 114.84,705.54)" text-anchor="middle">Average marginal effects (95% confidence interval)</text>
	<line x1="240.99" y1="1345.60" x2="2508.36" y2="1345.60" style="stroke:#000000;stroke-width:3.74"/>
	<line x1="282.17" y1="1345.60" x2="282.17" y2="1371.58" style="stroke:#000000;stroke-width:3.74"/>
	<text x="295.05" y="1397.49" style="font-family:'Helvetica';font-size:51.96px;fill:#000000" transform="rotate(-45 295.05,1397.49)" text-anchor="end">Government (1)</text>
	<line x1="555.34" y1="1345.60" x2="555.34" y2="1371.58" style="stroke:#000000;stroke-width:3.74"/>
	<text x="568.21" y="1397.49" style="font-family:'Helvetica';font-size:51.96px;fill:#000000" transform="rotate(-45 568.21,1397.49)" text-anchor="end">Government (2)</text>
	<line x1="828.43" y1="1345.60" x2="828.43" y2="1371.58" style="stroke:#000000;stroke-width:3.74"/>
	<text x="841.30" y="1397.49" style="font-family:'Helvetica';font-size:51.96px;fill:#000000" transform="rotate(-45 841.30,1397.49)" text-anchor="end">National newspaper</text>
	<line x1="1101.59" y1="1345.60" x2="1101.59" y2="1371.58" style="stroke:#000000;stroke-width:3.74"/>
	<text x="1114.47" y="1397.49" style="font-family:'Helvetica';font-size:51.96px;fill:#000000" transform="rotate(-45 1114.47,1397.49)" text-anchor="end">Economic association</text>
	<line x1="1374.68" y1="1345.60" x2="1374.68" y2="1371.58" style="stroke:#000000;stroke-width:3.74"/>
	<text x="1387.55" y="1397.49" style="font-family:'Helvetica';font-size:51.96px;fill:#000000" transform="rotate(-45 1387.55,1397.49)" text-anchor="end">National television</text>
	<line x1="1647.84" y1="1345.60" x2="1647.84" y2="1371.58" style="stroke:#000000;stroke-width:3.74"/>
	<text x="1660.72" y="1397.49" style="font-family:'Helvetica';font-size:51.96px;fill:#000000" transform="rotate(-45 1660.72,1397.49)" text-anchor="end">Regional newspaper</text>
	<line x1="1920.93" y1="1345.60" x2="1920.93" y2="1371.58" style="stroke:#000000;stroke-width:3.74"/>
	<text x="1933.80" y="1397.49" style="font-family:'Helvetica';font-size:51.96px;fill:#000000" transform="rotate(-45 1933.80,1397.49)" text-anchor="end">Personal blog</text>
	<line x1="2194.09" y1="1345.60" x2="2194.09" y2="1371.58" style="stroke:#000000;stroke-width:3.74"/>
	<text x="2206.97" y="1397.49" style="font-family:'Helvetica';font-size:51.96px;fill:#000000" transform="rotate(-45 2206.97,1397.49)" text-anchor="end">Free newspaper</text>
	<line x1="2467.18" y1="1345.60" x2="2467.18" y2="1371.58" style="stroke:#000000;stroke-width:3.74"/>
	<text x="2480.05" y="1397.49" style="font-family:'Helvetica';font-size:51.96px;fill:#000000" transform="rotate(-45 2480.05,1397.49)" text-anchor="end">Political party</text>
</svg>
