<?xml version="1.0" encoding="UTF-8" standalone="no"?>
<!-- This is a Stata 17.0 generated SVG file (http://www.stata.com) -->

<svg version="1.1" width="3.58in" height="2.60in" viewBox="0 0 2574 1872" xmlns="http://www.w3.org/2000/svg" xmlns:xlink="http://www.w3.org/1999/xlink">
	<desc>Stata Graph - Graph</desc>
	<rect x="0" y="0" width="2574" height="1872" style="fill:#F0F0F0;stroke:none"/>
	<rect x="0.00" y="0.00" width="2573.92" height="1872.00" style="fill:#FFFFFF"/>
	<rect x="1.87" y="1.87" width="2570.18" height="1868.26" style="fill:none;stroke:#FFFFFF;stroke-width:3.74"/>
	<rect x="65.56" y="65.56" width="2442.81" height="1740.88" style="fill:#FFFFFF"/>
	<rect x="67.43" y="67.43" width="2439.06" height="1737.14" style="fill:none;stroke:#FFFFFF;stroke-width:3.74"/>
	<rect x="240.99" y="65.56" width="2267.37" height="1096.72" style="fill:#FFFFFF"/>
	<rect x="242.86" y="67.43" width="2263.63" height="1092.98" style="fill:none;stroke:#FFFFFF;stroke-width:3.74"/>
	<line x1="240.99" y1="867.55" x2="2508.36" y2="867.55" style="stroke:#E8E8E8;stroke-width:5.62"/>
	<line x1="240.99" y1="613.92" x2="2508.36" y2="613.92" style="stroke:#E8E8E8;stroke-width:5.62"/>
	<line x1="240.99" y1="360.29" x2="2508.36" y2="360.29" style="stroke:#E8E8E8;stroke-width:5.62"/>
	<line x1="240.99" y1="106.74" x2="2508.36" y2="106.74" style="stroke:#E8E8E8;stroke-width:5.62"/>
	<line x1="240.99" y1="613.92" x2="278.39" y2="613.92" style="stroke:#000000;stroke-width:5.62"/>
	<line x1="297.14" y1="613.92" x2="334.62" y2="613.92" style="stroke:#000000;stroke-width:5.62"/>
	<line x1="353.28" y1="613.92" x2="390.77" y2="613.92" style="stroke:#000000;stroke-width:5.62"/>
	<line x1="409.43" y1="613.92" x2="446.91" y2="613.92" style="stroke:#000000;stroke-width:5.62"/>
	<line x1="465.65" y1="613.92" x2="503.06" y2="613.92" style="stroke:#000000;stroke-width:5.62"/>
	<line x1="521.80" y1="613.92" x2="559.20" y2="613.92" style="stroke:#000000;stroke-width:5.62"/>
	<line x1="577.94" y1="613.92" x2="615.35" y2="613.92" style="stroke:#000000;stroke-width:5.62"/>
	<line x1="634.09" y1="613.92" x2="671.49" y2="613.92" style="stroke:#000000;stroke-width:5.62"/>
	<line x1="690.23" y1="613.92" x2="727.64" y2="613.92" style="stroke:#000000;stroke-width:5.62"/>
	<line x1="746.38" y1="613.92" x2="783.78" y2="613.92" style="stroke:#000000;stroke-width:5.62"/>
	<line x1="802.52" y1="613.92" x2="839.93" y2="613.92" style="stroke:#000000;stroke-width:5.62"/>
	<line x1="858.67" y1="613.92" x2="896.07" y2="613.92" style="stroke:#000000;stroke-width:5.62"/>
	<line x1="914.82" y1="613.92" x2="952.30" y2="613.92" style="stroke:#000000;stroke-width:5.62"/>
	<line x1="970.96" y1="613.92" x2="1008.44" y2="613.92" style="stroke:#000000;stroke-width:5.62"/>
	<line x1="1027.11" y1="613.92" x2="1064.59" y2="613.92" style="stroke:#000000;stroke-width:5.62"/>
	<line x1="1083.33" y1="613.92" x2="1120.74" y2="613.92" style="stroke:#000000;stroke-width:5.62"/>
	<line x1="1139.48" y1="613.92" x2="1176.88" y2="613.92" style="stroke:#000000;stroke-width:5.62"/>
	<line x1="1195.62" y1="613.92" x2="1233.03" y2="613.92" style="stroke:#000000;stroke-width:5.62"/>
	<line x1="1251.77" y1="613.92" x2="1289.17" y2="613.92" style="stroke:#000000;stroke-width:5.62"/>
	<line x1="1307.91" y1="613.92" x2="1345.32" y2="613.92" style="stroke:#000000;stroke-width:5.62"/>
	<line x1="1364.06" y1="613.92" x2="1401.46" y2="613.92" style="stroke:#000000;stroke-width:5.62"/>
	<line x1="1420.20" y1="613.92" x2="1457.61" y2="613.92" style="stroke:#000000;stroke-width:5.62"/>
	<line x1="1476.35" y1="613.92" x2="1513.75" y2="613.92" style="stroke:#000000;stroke-width:5.62"/>
	<line x1="1532.50" y1="613.92" x2="1569.98" y2="613.92" style="stroke:#000000;stroke-width:5.62"/>
	<line x1="1588.64" y1="613.92" x2="1626.12" y2="613.92" style="stroke:#000000;stroke-width:5.62"/>
	<line x1="1644.79" y1="613.92" x2="1682.27" y2="613.92" style="stroke:#000000;stroke-width:5.62"/>
	<line x1="1701.01" y1="613.92" x2="1738.42" y2="613.92" style="stroke:#000000;stroke-width:5.62"/>
	<line x1="1757.16" y1="613.92" x2="1794.56" y2="613.92" style="stroke:#000000;stroke-width:5.62"/>
	<line x1="1813.30" y1="613.92" x2="1850.71" y2="613.92" style="stroke:#000000;stroke-width:5.62"/>
	<line x1="1869.45" y1="613.92" x2="1906.85" y2="613.92" style="stroke:#000000;stroke-width:5.62"/>
	<line x1="1925.59" y1="613.92" x2="1963.00" y2="613.92" style="stroke:#000000;stroke-width:5.62"/>
	<line x1="1981.74" y1="613.92" x2="2019.14" y2="613.92" style="stroke:#000000;stroke-width:5.62"/>
	<line x1="2037.88" y1="613.92" x2="2075.29" y2="613.92" style="stroke:#000000;stroke-width:5.62"/>
	<line x1="2094.03" y1="613.92" x2="2131.43" y2="613.92" style="stroke:#000000;stroke-width:5.62"/>
	<line x1="2150.17" y1="613.92" x2="2187.66" y2="613.92" style="stroke:#000000;stroke-width:5.62"/>
	<line x1="2206.32" y1="613.92" x2="2243.80" y2="613.92" style="stroke:#000000;stroke-width:5.62"/>
	<line x1="2262.55" y1="613.92" x2="2299.95" y2="613.92" style="stroke:#000000;stroke-width:5.62"/>
	<line x1="2318.69" y1="613.92" x2="2356.09" y2="613.92" style="stroke:#000000;stroke-width:5.62"/>
	<line x1="2374.84" y1="613.92" x2="2412.24" y2="613.92" style="stroke:#000000;stroke-width:5.62"/>
	<line x1="2430.98" y1="613.92" x2="2468.39" y2="613.92" style="stroke:#000000;stroke-width:5.62"/>
	<line x1="2487.13" y1="613.92" x2="2508.36" y2="613.92" style="stroke:#000000;stroke-width:5.62"/>
	<line x1="282.17" y1="499.05" x2="282.17" y2="355.54" style="stroke:#000000;stroke-width:5.62"/>
	<line x1="267.86" y1="355.54" x2="296.49" y2="355.54" stroke-linecap="round" style="stroke:#000000;stroke-width:5.62"/>
	<line x1="267.86" y1="499.05" x2="296.49" y2="499.05" stroke-linecap="round" style="stroke:#000000;stroke-width:5.62"/>
	<line x1="719.19" y1="516.42" x2="719.19" y2="215.82" style="stroke:#000000;stroke-width:5.62"/>
	<line x1="704.87" y1="215.82" x2="733.51" y2="215.82" stroke-linecap="round" style="stroke:#000000;stroke-width:5.62"/>
	<line x1="704.87" y1="516.42" x2="733.51" y2="516.42" stroke-linecap="round" style="stroke:#000000;stroke-width:5.62"/>
	<line x1="1156.21" y1="620.84" x2="1156.21" y2="456.66" style="stroke:#000000;stroke-width:5.62"/>
	<line x1="1141.89" y1="456.66" x2="1170.53" y2="456.66" stroke-linecap="round" style="stroke:#000000;stroke-width:5.62"/>
	<line x1="1141.89" y1="620.84" x2="1170.53" y2="620.84" stroke-linecap="round" style="stroke:#000000;stroke-width:5.62"/>
	<line x1="1593.23" y1="826.44" x2="1593.23" y2="572.81" style="stroke:#000000;stroke-width:5.62"/>
	<line x1="1578.91" y1="572.81" x2="1607.54" y2="572.81" stroke-linecap="round" style="stroke:#000000;stroke-width:5.62"/>
	<line x1="1578.91" y1="826.44" x2="1607.54" y2="826.44" stroke-linecap="round" style="stroke:#000000;stroke-width:5.62"/>
	<line x1="2030.24" y1="941.71" x2="2030.24" y2="681.33" style="stroke:#000000;stroke-width:5.62"/>
	<line x1="2015.92" y1="681.33" x2="2044.56" y2="681.33" stroke-linecap="round" style="stroke:#000000;stroke-width:5.62"/>
	<line x1="2015.92" y1="941.71" x2="2044.56" y2="941.71" stroke-linecap="round" style="stroke:#000000;stroke-width:5.62"/>
	<line x1="2467.18" y1="647.14" x2="2467.18" y2="396.49" style="stroke:#000000;stroke-width:5.62"/>
	<line x1="2452.86" y1="396.49" x2="2481.50" y2="396.49" stroke-linecap="round" style="stroke:#000000;stroke-width:5.62"/>
	<line x1="2452.86" y1="647.14" x2="2481.50" y2="647.14" stroke-linecap="round" style="stroke:#000000;stroke-width:5.62"/>
	<line x1="282.17" y1="853.71" x2="282.17" y2="712.54" style="stroke:#000000;stroke-width:5.62"/>
	<line x1="267.86" y1="712.54" x2="296.49" y2="712.54" stroke-linecap="round" style="stroke:#000000;stroke-width:5.62"/>
	<line x1="267.86" y1="853.71" x2="296.49" y2="853.71" stroke-linecap="round" style="stroke:#000000;stroke-width:5.62"/>
	<line x1="719.19" y1="783.57" x2="719.19" y2="535.01" style="stroke:#000000;stroke-width:5.62"/>
	<line x1="704.87" y1="535.01" x2="733.51" y2="535.01" stroke-linecap="round" style="stroke:#000000;stroke-width:5.62"/>
	<line x1="704.87" y1="783.57" x2="733.51" y2="783.57" stroke-linecap="round" style="stroke:#000000;stroke-width:5.62"/>
	<line x1="1156.21" y1="751.23" x2="1156.21" y2="618.10" style="stroke:#000000;stroke-width:5.62"/>
	<line x1="1141.89" y1="618.10" x2="1170.53" y2="618.10" stroke-linecap="round" style="stroke:#000000;stroke-width:5.62"/>
	<line x1="1141.89" y1="751.23" x2="1170.53" y2="751.23" stroke-linecap="round" style="stroke:#000000;stroke-width:5.62"/>
	<line x1="1593.23" y1="851.06" x2="1593.23" y2="637.08" style="stroke:#000000;stroke-width:5.62"/>
	<line x1="1578.91" y1="637.08" x2="1607.54" y2="637.08" stroke-linecap="round" style="stroke:#000000;stroke-width:5.62"/>
	<line x1="1578.91" y1="851.06" x2="1607.54" y2="851.06" stroke-linecap="round" style="stroke:#000000;stroke-width:5.62"/>
	<line x1="2030.24" y1="963.35" x2="2030.24" y2="729.67" style="stroke:#000000;stroke-width:5.62"/>
	<line x1="2015.92" y1="729.67" x2="2044.56" y2="729.67" stroke-linecap="round" style="stroke:#000000;stroke-width:5.62"/>
	<line x1="2015.92" y1="963.35" x2="2044.56" y2="963.35" stroke-linecap="round" style="stroke:#000000;stroke-width:5.62"/>
	<line x1="2467.18" y1="745.36" x2="2467.18" y2="559.30" style="stroke:#000000;stroke-width:5.62"/>
	<line x1="2452.86" y1="559.30" x2="2481.50" y2="559.30" stroke-linecap="round" style="stroke:#000000;stroke-width:5.62"/>
	<line x1="2452.86" y1="745.36" x2="2481.50" y2="745.36" stroke-linecap="round" style="stroke:#000000;stroke-width:5.62"/>
	<circle cx="282.17" cy="427.30" r="17.13" style="fill:#000000"/>
	<circle cx="282.17" cy="427.30" r="14.32" style="fill:none;stroke:#000000;stroke-width:5.62"/>
	<circle cx="719.11" cy="366.16" r="17.13" style="fill:#000000"/>
	<circle cx="719.11" cy="366.16" r="14.32" style="fill:none;stroke:#000000;stroke-width:5.62"/>
	<circle cx="1156.13" cy="538.79" r="17.13" style="fill:#000000"/>
	<circle cx="1156.13" cy="538.79" r="14.32" style="fill:none;stroke:#000000;stroke-width:5.62"/>
	<circle cx="1593.15" cy="699.67" r="17.13" style="fill:#000000"/>
	<circle cx="1593.15" cy="699.67" r="14.32" style="fill:none;stroke:#000000;stroke-width:5.62"/>
	<circle cx="2030.16" cy="811.56" r="17.13" style="fill:#000000"/>
	<circle cx="2030.16" cy="811.56" r="14.32" style="fill:none;stroke:#000000;stroke-width:5.62"/>
	<circle cx="2467.18" cy="521.81" r="17.13" style="fill:#000000"/>
	<circle cx="2467.18" cy="521.81" r="14.32" style="fill:none;stroke:#000000;stroke-width:5.62"/>
	<rect x="265.05" y="766.04" width="34.25" height="34.25" style="fill:#000000"/>
	<rect x="267.86" y="768.85" width="28.64" height="28.64" style="fill:none;stroke:#000000;stroke-width:5.62"/>
	<rect x="701.99" y="642.16" width="34.25" height="34.25" style="fill:#000000"/>
	<rect x="704.79" y="644.97" width="28.64" height="28.64" style="fill:none;stroke:#000000;stroke-width:5.62"/>
	<rect x="1139.00" y="667.58" width="34.25" height="34.25" style="fill:#000000"/>
	<rect x="1141.81" y="670.39" width="28.64" height="28.64" style="fill:none;stroke:#000000;stroke-width:5.62"/>
	<rect x="1576.02" y="726.94" width="34.25" height="34.25" style="fill:#000000"/>
	<rect x="1578.83" y="729.75" width="28.64" height="28.64" style="fill:none;stroke:#000000;stroke-width:5.62"/>
	<rect x="2013.04" y="829.42" width="34.25" height="34.25" style="fill:#000000"/>
	<rect x="2015.84" y="832.23" width="28.64" height="28.64" style="fill:none;stroke:#000000;stroke-width:5.62"/>
	<rect x="2450.05" y="635.24" width="34.25" height="34.25" style="fill:#000000"/>
	<rect x="2452.86" y="638.05" width="28.64" height="28.64" style="fill:none;stroke:#000000;stroke-width:5.62"/>
	<line x1="240.99" y1="1162.28" x2="240.99" y2="65.56" style="stroke:#000000;stroke-width:3.74"/>
	<line x1="240.99" y1="1121.09" x2="215.01" y2="1121.09" style="stroke:#000000;stroke-width:3.74"/>
	<text x="182.44" y="1121.09" style="font-family:'Helvetica';font-size:64.99px;fill:#000000" transform="rotate(-90 182.44,1121.09)" text-anchor="middle">-.4</text>
	<line x1="240.99" y1="867.55" x2="215.01" y2="867.55" style="stroke:#000000;stroke-width:3.74"/>
	<text x="182.44" y="867.55" style="font-family:'Helvetica';font-size:64.99px;fill:#000000" transform="rotate(-90 182.44,867.55)" text-anchor="middle">-.2</text>
	<line x1="240.99" y1="613.92" x2="215.01" y2="613.92" style="stroke:#000000;stroke-width:3.74"/>
	<text x="182.44" y="613.92" style="font-family:'Helvetica';font-size:64.99px;fill:#000000" transform="rotate(-90 182.44,613.92)" text-anchor="middle">0</text>
	<line x1="240.99" y1="360.29" x2="215.01" y2="360.29" style="stroke:#000000;stroke-width:3.74"/>
	<text x="182.44" y="360.29" style="font-family:'Helvetica';font-size:64.99px;fill:#000000" transform="rotate(-90 182.44,360.29)" text-anchor="middle">.2</text>
	<line x1="240.99" y1="106.74" x2="215.01" y2="106.74" style="stroke:#000000;stroke-width:3.74"/>
	<text x="182.44" y="106.74" style="font-family:'Helvetica';font-size:64.99px;fill:#000000" transform="rotate(-90 182.44,106.74)" text-anchor="middle">.4</text>
	<text x="114.84" y="613.92" style="font-family:'Helvetica';font-size:51.96px;fill:#000000" transform="rotate(-90 114.84,613.92)" text-anchor="middle">Average marginal effects (90% confidence interval)</text>
	<line x1="240.99" y1="1162.28" x2="2508.36" y2="1162.28" style="stroke:#000000;stroke-width:3.74"/>
	<line x1="282.17" y1="1162.28" x2="282.17" y2="1188.34" style="stroke:#000000;stroke-width:3.74"/>
	<text x="295.05" y="1214.17" style="font-family:'Helvetica';font-size:51.96px;fill:#000000" transform="rotate(-45 295.05,1214.17)" text-anchor="end">Government</text>
	<line x1="719.19" y1="1162.28" x2="719.19" y2="1188.34" style="stroke:#000000;stroke-width:3.74"/>
	<text x="732.07" y="1214.17" style="font-family:'Helvetica';font-size:51.96px;fill:#000000" transform="rotate(-45 732.07,1214.17)" text-anchor="end">Political party</text>
	<line x1="1156.21" y1="1162.28" x2="1156.21" y2="1188.34" style="stroke:#000000;stroke-width:3.74"/>
	<text x="1169.08" y="1214.17" style="font-family:'Helvetica';font-size:51.96px;fill:#000000" transform="rotate(-45 1169.08,1214.17)" text-anchor="end">Quality media</text>
	<line x1="1593.23" y1="1162.28" x2="1593.23" y2="1188.34" style="stroke:#000000;stroke-width:3.74"/>
	<text x="1606.10" y="1214.17" style="font-family:'Helvetica';font-size:51.96px;fill:#000000" transform="rotate(-45 1606.10,1214.17)" text-anchor="end">Tabloid media</text>
	<line x1="2030.24" y1="1162.28" x2="2030.24" y2="1188.34" style="stroke:#000000;stroke-width:3.74"/>
	<text x="2043.12" y="1214.17" style="font-family:'Helvetica';font-size:51.96px;fill:#000000" transform="rotate(-45 2043.12,1214.17)" text-anchor="end">Economic organization</text>
	<line x1="2467.18" y1="1162.28" x2="2467.18" y2="1188.34" style="stroke:#000000;stroke-width:3.74"/>
	<text x="2480.05" y="1214.17" style="font-family:'Helvetica';font-size:51.96px;fill:#000000" transform="rotate(-45 2480.05,1214.17)" text-anchor="end">Personal blog</text>
	<rect x="1038.13" y="1662.86" width="673.18" height="121.14" style="fill:#FFFFFF"/>
	<rect x="1040.00" y="1664.73" width="669.44" height="117.40" style="fill:none;stroke:#000000;stroke-width:3.74"/>
	<circle cx="1080.52" cy="1723.43" r="17.13" style="fill:#000000"/>
	<circle cx="1080.52" cy="1723.43" r="14.32" style="fill:none;stroke:#000000;stroke-width:5.62"/>
	<rect x="1388.92" y="1706.30" width="34.25" height="34.25" style="fill:#000000"/>
	<rect x="1391.73" y="1709.11" width="28.64" height="28.64" style="fill:none;stroke:#000000;stroke-width:5.62"/>
	<text x="1133.77" y="1746.20" style="font-family:'Helvetica';font-size:64.99px;fill:#000000">Top 5</text>
	<text x="1459.30" y="1746.20" style="font-family:'Helvetica';font-size:64.99px;fill:#000000">Least 5</text>
</svg>
