<?xml version="1.0" encoding="UTF-8" standalone="no"?>
<!-- This is a Stata 17.0 generated SVG file (http://www.stata.com) -->

<svg version="1.1" width="3.58in" height="2.60in" viewBox="0 0 2574 1872" xmlns="http://www.w3.org/2000/svg" xmlns:xlink="http://www.w3.org/1999/xlink">
	<desc>Stata Graph - Figure2a_Ranking</desc>
	<rect x="0" y="0" width="2574" height="1872" style="fill:#F0F0F0;stroke:none"/>
	<rect x="0.00" y="0.00" width="2573.92" height="1872.00" style="fill:#FFFFFF"/>
	<rect x="1.87" y="1.87" width="2570.18" height="1868.26" style="fill:none;stroke:#FFFFFF;stroke-width:3.74"/>
	<rect x="65.56" y="65.56" width="2442.81" height="1740.88" style="fill:#FFFFFF"/>
	<rect x="67.43" y="67.43" width="2439.06" height="1737.14" style="fill:none;stroke:#FFFFFF;stroke-width:3.74"/>
	<rect x="240.99" y="65.56" width="2267.37" height="1453.71" style="fill:#FFFFFF"/>
	<rect x="242.86" y="67.43" width="2263.63" height="1449.97" style="fill:none;stroke:#FFFFFF;stroke-width:3.74"/>
	<line x1="240.99" y1="1478.09" x2="2508.36" y2="1478.09" style="stroke:#E8E8E8;stroke-width:5.62"/>
	<line x1="240.99" y1="1020.94" x2="2508.36" y2="1020.94" style="stroke:#E8E8E8;stroke-width:5.62"/>
	<line x1="240.99" y1="563.80" x2="2508.36" y2="563.80" style="stroke:#E8E8E8;stroke-width:5.62"/>
	<line x1="240.99" y1="106.74" x2="2508.36" y2="106.74" style="stroke:#E8E8E8;stroke-width:5.62"/>
	<line x1="240.99" y1="1020.94" x2="278.39" y2="1020.94" style="stroke:#000000;stroke-width:5.62"/>
	<line x1="297.14" y1="1020.94" x2="334.62" y2="1020.94" style="stroke:#000000;stroke-width:5.62"/>
	<line x1="353.28" y1="1020.94" x2="390.77" y2="1020.94" style="stroke:#000000;stroke-width:5.62"/>
	<line x1="409.43" y1="1020.94" x2="446.91" y2="1020.94" style="stroke:#000000;stroke-width:5.62"/>
	<line x1="465.65" y1="1020.94" x2="503.06" y2="1020.94" style="stroke:#000000;stroke-width:5.62"/>
	<line x1="521.80" y1="1020.94" x2="559.20" y2="1020.94" style="stroke:#000000;stroke-width:5.62"/>
	<line x1="577.94" y1="1020.94" x2="615.35" y2="1020.94" style="stroke:#000000;stroke-width:5.62"/>
	<line x1="634.09" y1="1020.94" x2="671.49" y2="1020.94" style="stroke:#000000;stroke-width:5.62"/>
	<line x1="690.23" y1="1020.94" x2="727.64" y2="1020.94" style="stroke:#000000;stroke-width:5.62"/>
	<line x1="746.38" y1="1020.94" x2="783.78" y2="1020.94" style="stroke:#000000;stroke-width:5.62"/>
	<line x1="802.52" y1="1020.94" x2="839.93" y2="1020.94" style="stroke:#000000;stroke-width:5.62"/>
	<line x1="858.67" y1="1020.94" x2="896.07" y2="1020.94" style="stroke:#000000;stroke-width:5.62"/>
	<line x1="914.82" y1="1020.94" x2="952.30" y2="1020.94" style="stroke:#000000;stroke-width:5.62"/>
	<line x1="970.96" y1="1020.94" x2="1008.44" y2="1020.94" style="stroke:#000000;stroke-width:5.62"/>
	<line x1="1027.11" y1="1020.94" x2="1064.59" y2="1020.94" style="stroke:#000000;stroke-width:5.62"/>
	<line x1="1083.33" y1="1020.94" x2="1120.74" y2="1020.94" style="stroke:#000000;stroke-width:5.62"/>
	<line x1="1139.48" y1="1020.94" x2="1176.88" y2="1020.94" style="stroke:#000000;stroke-width:5.62"/>
	<line x1="1195.62" y1="1020.94" x2="1233.03" y2="1020.94" style="stroke:#000000;stroke-width:5.62"/>
	<line x1="1251.77" y1="1020.94" x2="1289.17" y2="1020.94" style="stroke:#000000;stroke-width:5.62"/>
	<line x1="1307.91" y1="1020.94" x2="1345.32" y2="1020.94" style="stroke:#000000;stroke-width:5.62"/>
	<line x1="1364.06" y1="1020.94" x2="1401.46" y2="1020.94" style="stroke:#000000;stroke-width:5.62"/>
	<line x1="1420.20" y1="1020.94" x2="1457.61" y2="1020.94" style="stroke:#000000;stroke-width:5.62"/>
	<line x1="1476.35" y1="1020.94" x2="1513.75" y2="1020.94" style="stroke:#000000;stroke-width:5.62"/>
	<line x1="1532.50" y1="1020.94" x2="1569.98" y2="1020.94" style="stroke:#000000;stroke-width:5.62"/>
	<line x1="1588.64" y1="1020.94" x2="1626.12" y2="1020.94" style="stroke:#000000;stroke-width:5.62"/>
	<line x1="1644.79" y1="1020.94" x2="1682.27" y2="1020.94" style="stroke:#000000;stroke-width:5.62"/>
	<line x1="1701.01" y1="1020.94" x2="1738.42" y2="1020.94" style="stroke:#000000;stroke-width:5.62"/>
	<line x1="1757.16" y1="1020.94" x2="1794.56" y2="1020.94" style="stroke:#000000;stroke-width:5.62"/>
	<line x1="1813.30" y1="1020.94" x2="1850.71" y2="1020.94" style="stroke:#000000;stroke-width:5.62"/>
	<line x1="1869.45" y1="1020.94" x2="1906.85" y2="1020.94" style="stroke:#000000;stroke-width:5.62"/>
	<line x1="1925.59" y1="1020.94" x2="1963.00" y2="1020.94" style="stroke:#000000;stroke-width:5.62"/>
	<line x1="1981.74" y1="1020.94" x2="2019.14" y2="1020.94" style="stroke:#000000;stroke-width:5.62"/>
	<line x1="2037.88" y1="1020.94" x2="2075.29" y2="1020.94" style="stroke:#000000;stroke-width:5.62"/>
	<line x1="2094.03" y1="1020.94" x2="2131.43" y2="1020.94" style="stroke:#000000;stroke-width:5.62"/>
	<line x1="2150.17" y1="1020.94" x2="2187.66" y2="1020.94" style="stroke:#000000;stroke-width:5.62"/>
	<line x1="2206.32" y1="1020.94" x2="2243.80" y2="1020.94" style="stroke:#000000;stroke-width:5.62"/>
	<line x1="2262.55" y1="1020.94" x2="2299.95" y2="1020.94" style="stroke:#000000;stroke-width:5.62"/>
	<line x1="2318.69" y1="1020.94" x2="2356.09" y2="1020.94" style="stroke:#000000;stroke-width:5.62"/>
	<line x1="2374.84" y1="1020.94" x2="2412.24" y2="1020.94" style="stroke:#000000;stroke-width:5.62"/>
	<line x1="2430.98" y1="1020.94" x2="2468.39" y2="1020.94" style="stroke:#000000;stroke-width:5.62"/>
	<line x1="2487.13" y1="1020.94" x2="2508.36" y2="1020.94" style="stroke:#000000;stroke-width:5.62"/>
	<line x1="282.17" y1="710.37" x2="282.17" y2="183.40" style="stroke:#000000;stroke-width:5.62"/>
	<line x1="267.86" y1="183.40" x2="296.49" y2="183.40" stroke-linecap="round" style="stroke:#000000;stroke-width:5.62"/>
	<line x1="267.86" y1="710.37" x2="296.49" y2="710.37" stroke-linecap="round" style="stroke:#000000;stroke-width:5.62"/>
	<line x1="464.29" y1="1129.22" x2="464.29" y2="667.41" style="stroke:#000000;stroke-width:5.62"/>
	<line x1="449.97" y1="667.41" x2="478.60" y2="667.41" stroke-linecap="round" style="stroke:#000000;stroke-width:5.62"/>
	<line x1="449.97" y1="1129.22" x2="478.60" y2="1129.22" stroke-linecap="round" style="stroke:#000000;stroke-width:5.62"/>
	<line x1="646.32" y1="1178.93" x2="646.32" y2="732.08" style="stroke:#000000;stroke-width:5.62"/>
	<line x1="632.00" y1="732.08" x2="660.63" y2="732.08" stroke-linecap="round" style="stroke:#000000;stroke-width:5.62"/>
	<line x1="632.00" y1="1178.93" x2="660.63" y2="1178.93" stroke-linecap="round" style="stroke:#000000;stroke-width:5.62"/>
	<line x1="828.43" y1="1301.36" x2="828.43" y2="897.15" style="stroke:#000000;stroke-width:5.62"/>
	<line x1="814.11" y1="897.15" x2="842.74" y2="897.15" stroke-linecap="round" style="stroke:#000000;stroke-width:5.62"/>
	<line x1="814.11" y1="1301.36" x2="842.74" y2="1301.36" stroke-linecap="round" style="stroke:#000000;stroke-width:5.62"/>
	<line x1="1010.54" y1="1308.76" x2="1010.54" y2="905.35" style="stroke:#000000;stroke-width:5.62"/>
	<line x1="996.22" y1="905.35" x2="1024.85" y2="905.35" stroke-linecap="round" style="stroke:#000000;stroke-width:5.62"/>
	<line x1="996.22" y1="1308.76" x2="1024.85" y2="1308.76" stroke-linecap="round" style="stroke:#000000;stroke-width:5.62"/>
	<line x1="1192.65" y1="993.84" x2="1192.65" y2="798.05" style="stroke:#000000;stroke-width:5.62"/>
	<line x1="1178.33" y1="798.05" x2="1206.96" y2="798.05" stroke-linecap="round" style="stroke:#000000;stroke-width:5.62"/>
	<line x1="1178.33" y1="993.84" x2="1206.96" y2="993.84" stroke-linecap="round" style="stroke:#000000;stroke-width:5.62"/>
	<line x1="1374.68" y1="1357.02" x2="1374.68" y2="1103.15" style="stroke:#000000;stroke-width:5.62"/>
	<line x1="1360.36" y1="1103.15" x2="1388.99" y2="1103.15" stroke-linecap="round" style="stroke:#000000;stroke-width:5.62"/>
	<line x1="1360.36" y1="1357.02" x2="1388.99" y2="1357.02" stroke-linecap="round" style="stroke:#000000;stroke-width:5.62"/>
	<line x1="1556.79" y1="1296.29" x2="1556.79" y2="1022.96" style="stroke:#000000;stroke-width:5.62"/>
	<line x1="1542.47" y1="1022.96" x2="1571.11" y2="1022.96" stroke-linecap="round" style="stroke:#000000;stroke-width:5.62"/>
	<line x1="1542.47" y1="1296.29" x2="1571.11" y2="1296.29" stroke-linecap="round" style="stroke:#000000;stroke-width:5.62"/>
	<line x1="1738.90" y1="1350.51" x2="1738.90" y2="1091.49" style="stroke:#000000;stroke-width:5.62"/>
	<line x1="1724.58" y1="1091.49" x2="1753.22" y2="1091.49" stroke-linecap="round" style="stroke:#000000;stroke-width:5.62"/>
	<line x1="1724.58" y1="1350.51" x2="1753.22" y2="1350.51" stroke-linecap="round" style="stroke:#000000;stroke-width:5.62"/>
	<line x1="1920.93" y1="1276.82" x2="1920.93" y2="996.57" style="stroke:#000000;stroke-width:5.62"/>
	<line x1="1906.61" y1="996.57" x2="1935.25" y2="996.57" stroke-linecap="round" style="stroke:#000000;stroke-width:5.62"/>
	<line x1="1906.61" y1="1276.82" x2="1935.25" y2="1276.82" stroke-linecap="round" style="stroke:#000000;stroke-width:5.62"/>
	<line x1="2103.04" y1="1421.05" x2="2103.04" y2="1102.11" style="stroke:#000000;stroke-width:5.62"/>
	<line x1="2088.72" y1="1102.11" x2="2117.36" y2="1102.11" stroke-linecap="round" style="stroke:#000000;stroke-width:5.62"/>
	<line x1="2088.72" y1="1421.05" x2="2117.36" y2="1421.05" stroke-linecap="round" style="stroke:#000000;stroke-width:5.62"/>
	<line x1="2285.15" y1="1210.30" x2="2285.15" y2="1014.67" style="stroke:#000000;stroke-width:5.62"/>
	<line x1="2270.83" y1="1014.67" x2="2299.47" y2="1014.67" stroke-linecap="round" style="stroke:#000000;stroke-width:5.62"/>
	<line x1="2270.83" y1="1210.30" x2="2299.47" y2="1210.30" stroke-linecap="round" style="stroke:#000000;stroke-width:5.62"/>
	<line x1="2467.18" y1="1218.51" x2="2467.18" y2="887.58" style="stroke:#000000;stroke-width:5.62"/>
	<line x1="2452.86" y1="887.58" x2="2481.50" y2="887.58" stroke-linecap="round" style="stroke:#000000;stroke-width:5.62"/>
	<line x1="2452.86" y1="1218.51" x2="2481.50" y2="1218.51" stroke-linecap="round" style="stroke:#000000;stroke-width:5.62"/>
	<polygon points="257.93,446.92 282.17,422.68 306.42,446.92 282.17,471.17" style="fill:#000000"/>
	<polygon points="261.90,446.92 282.17,426.65 302.44,446.92 282.17,467.19" style="fill:none;stroke:#000000;stroke-width:5.62"/>
	<polygon points="439.96,898.35 464.20,874.11 488.45,898.35 464.20,922.60" style="fill:#000000"/>
	<polygon points="443.93,898.35 464.20,878.08 484.48,898.35 464.20,918.62" style="fill:none;stroke:#000000;stroke-width:5.62"/>
	<polygon points="622.07,955.55 646.32,931.31 670.56,955.55 646.32,979.79" style="fill:#000000"/>
	<polygon points="626.05,955.55 646.32,935.28 666.59,955.55 646.32,975.82" style="fill:none;stroke:#000000;stroke-width:5.62"/>
	<polygon points="804.18,1099.29 828.43,1075.05 852.67,1099.29 828.43,1123.53" style="fill:#000000"/>
	<polygon points="808.16,1099.29 828.43,1079.02 848.70,1099.29 828.43,1119.56" style="fill:none;stroke:#000000;stroke-width:5.62"/>
	<polygon points="986.21,1107.10 1010.46,1082.85 1034.70,1107.10 1010.46,1131.34" style="fill:#000000"/>
	<polygon points="990.19,1107.10 1010.46,1086.83 1030.73,1107.10 1010.46,1127.37" style="fill:none;stroke:#000000;stroke-width:5.62"/>
	<polygon points="1168.33,896.02 1192.57,871.78 1216.81,896.02 1192.57,920.26" style="fill:#000000"/>
	<polygon points="1172.30,896.02 1192.57,875.75 1212.84,896.02 1192.57,916.29" style="fill:none;stroke:#000000;stroke-width:5.62"/>
	<polygon points="1350.44,1230.09 1374.68,1205.85 1398.92,1230.09 1374.68,1254.33" style="fill:#000000"/>
	<polygon points="1354.41,1230.09 1374.68,1209.82 1394.95,1230.09 1374.68,1250.36" style="fill:none;stroke:#000000;stroke-width:5.62"/>
	<polygon points="1532.47,1159.62 1556.71,1135.38 1580.95,1159.62 1556.71,1183.86" style="fill:#000000"/>
	<polygon points="1536.44,1159.62 1556.71,1139.35 1576.98,1159.62 1556.71,1179.89" style="fill:none;stroke:#000000;stroke-width:5.62"/>
	<polygon points="1714.58,1221.00 1738.82,1196.76 1763.06,1221.00 1738.82,1245.24" style="fill:#000000"/>
	<polygon points="1718.55,1221.00 1738.82,1200.73 1759.09,1221.00 1738.82,1241.27" style="fill:none;stroke:#000000;stroke-width:5.62"/>
	<polygon points="1896.69,1136.78 1920.93,1112.54 1945.17,1136.78 1920.93,1161.02" style="fill:#000000"/>
	<polygon points="1900.66,1136.78 1920.93,1116.51 1941.20,1136.78 1920.93,1157.05" style="fill:none;stroke:#000000;stroke-width:5.62"/>
	<polygon points="2078.80,1261.62 2103.04,1237.38 2127.28,1261.62 2103.04,1285.86" style="fill:#000000"/>
	<polygon points="2082.77,1261.62 2103.04,1241.35 2123.31,1261.62 2103.04,1281.89" style="fill:none;stroke:#000000;stroke-width:5.62"/>
	<polygon points="2260.83,1112.57 2285.07,1088.32 2309.31,1112.57 2285.07,1136.81" style="fill:#000000"/>
	<polygon points="2264.80,1112.57 2285.07,1092.30 2305.34,1112.57 2285.07,1132.84" style="fill:none;stroke:#000000;stroke-width:5.62"/>
	<polygon points="2442.94,1053.04 2467.18,1028.80 2491.42,1053.04 2467.18,1077.28" style="fill:#000000"/>
	<polygon points="2446.91,1053.04 2467.18,1032.77 2487.45,1053.04 2467.18,1073.31" style="fill:none;stroke:#000000;stroke-width:5.62"/>
	<line x1="240.99" y1="1519.27" x2="240.99" y2="65.56" style="stroke:#000000;stroke-width:3.74"/>
	<line x1="240.99" y1="1478.09" x2="215.01" y2="1478.09" style="stroke:#000000;stroke-width:3.74"/>
	<text x="182.44" y="1478.09" style="font-family:'Helvetica';font-size:64.99px;fill:#000000" transform="rotate(-90 182.44,1478.09)" text-anchor="middle">-.2</text>
	<line x1="240.99" y1="1020.94" x2="215.01" y2="1020.94" style="stroke:#000000;stroke-width:3.74"/>
	<text x="182.44" y="1020.94" style="font-family:'Helvetica';font-size:64.99px;fill:#000000" transform="rotate(-90 182.44,1020.94)" text-anchor="middle">0</text>
	<line x1="240.99" y1="563.80" x2="215.01" y2="563.80" style="stroke:#000000;stroke-width:3.74"/>
	<text x="182.44" y="563.80" style="font-family:'Helvetica';font-size:64.99px;fill:#000000" transform="rotate(-90 182.44,563.80)" text-anchor="middle">.2</text>
	<line x1="240.99" y1="106.74" x2="215.01" y2="106.74" style="stroke:#000000;stroke-width:3.74"/>
	<text x="182.44" y="106.74" style="font-family:'Helvetica';font-size:64.99px;fill:#000000" transform="rotate(-90 182.44,106.74)" text-anchor="middle">.4</text>
	<text x="114.84" y="792.41" style="font-family:'Helvetica';font-size:51.96px;fill:#000000" transform="rotate(-90 114.84,792.41)" text-anchor="middle">Average marginal effects (95% confidence interval)</text>
	<line x1="240.99" y1="1519.27" x2="2508.36" y2="1519.27" style="stroke:#000000;stroke-width:3.74"/>
	<line x1="282.17" y1="1519.27" x2="282.17" y2="1545.33" style="stroke:#000000;stroke-width:3.74"/>
	<text x="295.05" y="1571.16" style="font-family:'Helvetica';font-size:51.96px;fill:#000000" transform="rotate(-45 295.05,1571.16)" text-anchor="end">#1</text>
	<line x1="464.29" y1="1519.27" x2="464.29" y2="1545.33" style="stroke:#000000;stroke-width:3.74"/>
	<text x="477.16" y="1571.16" style="font-family:'Helvetica';font-size:51.96px;fill:#000000" transform="rotate(-45 477.16,1571.16)" text-anchor="end">#2</text>
	<line x1="646.32" y1="1519.27" x2="646.32" y2="1545.33" style="stroke:#000000;stroke-width:3.74"/>
	<text x="659.19" y="1571.16" style="font-family:'Helvetica';font-size:51.96px;fill:#000000" transform="rotate(-45 659.19,1571.16)" text-anchor="end">#3</text>
	<line x1="828.43" y1="1519.27" x2="828.43" y2="1545.33" style="stroke:#000000;stroke-width:3.74"/>
	<text x="841.30" y="1571.16" style="font-family:'Helvetica';font-size:51.96px;fill:#000000" transform="rotate(-45 841.30,1571.16)" text-anchor="end">#4</text>
	<line x1="1010.54" y1="1519.27" x2="1010.54" y2="1545.33" style="stroke:#000000;stroke-width:3.74"/>
	<text x="1023.41" y="1571.16" style="font-family:'Helvetica';font-size:51.96px;fill:#000000" transform="rotate(-45 1023.41,1571.16)" text-anchor="end">#5</text>
	<line x1="1192.65" y1="1519.27" x2="1192.65" y2="1545.33" style="stroke:#000000;stroke-width:3.74"/>
	<text x="1205.52" y="1571.16" style="font-family:'Helvetica';font-size:51.96px;fill:#000000" transform="rotate(-45 1205.52,1571.16)" text-anchor="end">Top 5</text>
	<line x1="1374.68" y1="1519.27" x2="1374.68" y2="1545.33" style="stroke:#000000;stroke-width:3.74"/>
	<text x="1387.55" y="1571.16" style="font-family:'Helvetica';font-size:51.96px;fill:#000000" transform="rotate(-45 1387.55,1571.16)" text-anchor="end">#6</text>
	<line x1="1556.79" y1="1519.27" x2="1556.79" y2="1545.33" style="stroke:#000000;stroke-width:3.74"/>
	<text x="1569.66" y="1571.16" style="font-family:'Helvetica';font-size:51.96px;fill:#000000" transform="rotate(-45 1569.66,1571.16)" text-anchor="end">#7</text>
	<line x1="1738.90" y1="1519.27" x2="1738.90" y2="1545.33" style="stroke:#000000;stroke-width:3.74"/>
	<text x="1751.77" y="1571.16" style="font-family:'Helvetica';font-size:51.96px;fill:#000000" transform="rotate(-45 1751.77,1571.16)" text-anchor="end">#8</text>
	<line x1="1920.93" y1="1519.27" x2="1920.93" y2="1545.33" style="stroke:#000000;stroke-width:3.74"/>
	<text x="1933.80" y="1571.16" style="font-family:'Helvetica';font-size:51.96px;fill:#000000" transform="rotate(-45 1933.80,1571.16)" text-anchor="end">#9</text>
	<line x1="2103.04" y1="1519.27" x2="2103.04" y2="1545.33" style="stroke:#000000;stroke-width:3.74"/>
	<text x="2115.91" y="1571.16" style="font-family:'Helvetica';font-size:51.96px;fill:#000000" transform="rotate(-45 2115.91,1571.16)" text-anchor="end">#10</text>
	<line x1="2285.15" y1="1519.27" x2="2285.15" y2="1545.33" style="stroke:#000000;stroke-width:3.74"/>
	<text x="2298.02" y="1571.16" style="font-family:'Helvetica';font-size:51.96px;fill:#000000" transform="rotate(-45 2298.02,1571.16)" text-anchor="end">Least 8</text>
	<line x1="2467.18" y1="1519.27" x2="2467.18" y2="1545.33" style="stroke:#000000;stroke-width:3.74"/>
	<text x="2480.05" y="1571.16" style="font-family:'Helvetica';font-size:51.96px;fill:#000000" transform="rotate(-45 2480.05,1571.16)" text-anchor="end">Google Ads</text>
</svg>
